# xmcd
#
# Track frame offsets: 
#        150
#        15862
#        22047
#        37923
#        51617
#        73132
#        82936
#        100682
#        125853
#        146028
#        170382
#        184675
#        192393
#        208202
#        228695
#
# Disc length: 4770 seconds
#
# Revision: 2
# Processed by: cddbd v1.5.2PL0 Copyright (c) Steve Scherf et al.
# Submitted via: ExactAudioCopy v0.99pb5
#
DISCID=d712a00f
DTITLE=Manfred Mann's Earth Band - 2006 (0157912 ERE)
DYEAR=2004
DGENRE=Rock
TTITLE0=Demons And Dragons (with ThomasD)
TTITLE1=Two Bridges (Interlude)
TTITLE2=Down In Mexico
TTITLE3=Happenstance (Instrumental)
TTITLE4=The History Of Sexual Jealousy
TTITLE5=Black Eyes
TTITLE6=Mars
TTITLE7=Get Me Out Of This
TTITLE8=Frog
TTITLE9=Two Friends
TTITLE10=Monkmann
TTITLE11=Marche Slave (Instrumental Interlude)
TTITLE12=Independent Woman (With ThomasD)
TTITLE13=Dragons (reprise)
TTITLE14=Data
EXTD=YEAR: 2004
EXTT0=
EXTT1=
EXTT2=
EXTT3=
EXTT4=
EXTT5=
EXTT6=
EXTT7=
EXTT8=
EXTT9=
EXTT10=
EXTT11=
EXTT12=
EXTT13=
EXTT14=
PLAYORDER=
